<svg width="11" height="9" viewBox="0 0 11 9" fill="none" xmlns="http://www.w3.org/2000/svg">
<path d="M2.37712 0.740132C2.42662 0.789578 2.46589 0.848296 2.49268 0.91293C2.51948 0.977563 2.53327 1.04684 2.53327 1.11681C2.53327 1.18678 2.51948 1.25606 2.49268 1.32069C2.46589 1.38532 2.42662 1.44404 2.37712 1.49349C1.57821 2.29253 1.1294 3.37619 1.1294 4.50612C1.1294 5.63604 1.57821 6.7197 2.37712 7.51874C2.42797 7.56786 2.46853 7.62661 2.49643 7.69156C2.52434 7.75652 2.53902 7.82638 2.53964 7.89707C2.54025 7.96776 2.52678 8.03787 2.50001 8.1033C2.47324 8.16873 2.43371 8.22818 2.38372 8.27817C2.33373 8.32816 2.27429 8.36769 2.20885 8.39446C2.14342 8.42123 2.07332 8.4347 2.00262 8.43409C1.93193 8.43347 1.86207 8.41878 1.79711 8.39088C1.73216 8.36298 1.67341 8.32242 1.6243 8.27157C-0.45582 6.19198 -0.45582 2.81972 1.6243 0.740132C1.72414 0.640321 1.85953 0.58425 2.00071 0.58425C2.14188 0.58425 2.27728 0.640321 2.37712 0.740132ZM9.15573 0.740132C11.2353 2.82025 11.2353 6.19198 9.15573 8.27157C9.0559 8.37147 8.92047 8.42762 8.77924 8.42767C8.63801 8.42772 8.50254 8.37166 8.40264 8.27183C8.30274 8.172 8.24659 8.03658 8.24654 7.89534C8.24649 7.75411 8.30254 7.61865 8.40237 7.51874C9.20129 6.7197 9.6501 5.63604 9.6501 4.50612C9.6501 3.37619 9.20129 2.29253 8.40237 1.49349C8.30247 1.39359 8.24635 1.25809 8.24635 1.11681C8.24635 0.975528 8.30247 0.840033 8.40237 0.740132C8.50228 0.640231 8.63777 0.584106 8.77905 0.584106C8.92033 0.584106 9.05583 0.640231 9.15573 0.740132ZM3.95677 2.27027C4.05658 2.37011 4.11265 2.50551 4.11265 2.64668C4.11265 2.78786 4.05658 2.92325 3.95677 3.02309C3.76295 3.2169 3.6092 3.44698 3.50431 3.7002C3.39941 3.95343 3.34542 4.22484 3.34542 4.49893C3.34542 4.77302 3.39941 5.04443 3.50431 5.29765C3.6092 5.55088 3.76295 5.78096 3.95677 5.97476C4.0062 6.02423 4.04541 6.08295 4.07215 6.14756C4.09889 6.21218 4.11263 6.28143 4.11261 6.35136C4.11258 6.42129 4.09879 6.49053 4.072 6.55513C4.04522 6.61973 4.00597 6.67842 3.95651 6.72785C3.90704 6.77728 3.84832 6.81649 3.78371 6.84323C3.71909 6.86996 3.64984 6.88371 3.57991 6.88369C3.50998 6.88367 3.44073 6.86987 3.37614 6.84308C3.31154 6.8163 3.25285 6.77705 3.20342 6.72759C2.61235 6.1365 2.2803 5.33483 2.2803 4.49893C2.2803 3.66302 2.61235 2.86135 3.20342 2.27027C3.25286 2.22077 3.31158 2.1815 3.37621 2.15471C3.44085 2.12791 3.51013 2.11412 3.58009 2.11412C3.65006 2.11412 3.71934 2.12791 3.78397 2.15471C3.84861 2.1815 3.90733 2.22077 3.95677 2.27027ZM7.66126 2.27027C8.25233 2.86135 8.58438 3.66302 8.58438 4.49893C8.58438 5.33483 8.25233 6.1365 7.66126 6.72759C7.56085 6.82457 7.42636 6.87823 7.28677 6.87702C7.14717 6.87581 7.01364 6.81981 6.91492 6.7211C6.81621 6.62239 6.76022 6.48885 6.75901 6.34926C6.75779 6.20966 6.81146 6.07518 6.90844 5.97476C7.10226 5.78096 7.25601 5.55088 7.36091 5.29765C7.4658 5.04443 7.51979 4.77302 7.51979 4.49893C7.51979 4.22484 7.4658 3.95343 7.36091 3.7002C7.25601 3.44698 7.10226 3.2169 6.90844 3.02309C6.81146 2.92268 6.75779 2.78819 6.75901 2.6486C6.76022 2.509 6.81621 2.37547 6.91492 2.27676C7.01364 2.17804 7.14717 2.12205 7.28677 2.12084C7.42636 2.11962 7.56085 2.17329 7.66126 2.27027ZM5.43261 3.74504C5.64441 3.74504 5.84754 3.82918 5.99731 3.97895C6.14708 4.12872 6.23122 4.33185 6.23122 4.54365C6.23122 4.75546 6.14708 4.95859 5.99731 5.10835C5.84754 5.25812 5.64441 5.34226 5.43261 5.34226C5.2208 5.34226 5.01767 5.25812 4.8679 5.10835C4.71813 4.95859 4.634 4.75546 4.634 4.54365C4.634 4.33185 4.71813 4.12872 4.8679 3.97895C5.01767 3.82918 5.2208 3.74504 5.43261 3.74504Z" fill="#FF0000"/>
</svg>
