<svg width="140" height="30" viewBox="0 0 140 30" fill="none" xmlns="http://www.w3.org/2000/svg">
<mask id="path-1-inside-1_3_54" fill="white">
<path d="M140 15C140 15 20.7407 18.1865 10.3704 21.0621C-9.38783e-07 23.9377 -1.17653e-06 30 -1.17653e-06 30L0 -6.8208e-06C0 -6.8208e-06 0.471374 7.79422 10.3704 10.6698C20.2694 13.5455 140 15 140 15Z"/>
</mask>
<path d="M140 15C140 15 20.7407 18.1865 10.3704 21.0621C-9.38783e-07 23.9377 -1.17653e-06 30 -1.17653e-06 30L0 -6.8208e-06C0 -6.8208e-06 0.471374 7.79422 10.3704 10.6698C20.2694 13.5455 140 15 140 15Z" fill="white"/>
<path d="M0 -6.8208e-06C-2.09074e-07 5.33111 -4.18148e-07 10.6622 -6.27222e-07 15.9933C-8.10325e-07 20.6622 -9.93428e-07 25.3311 -1.17653e-06 30C0.667663 24.9482 5.8828 22.2996 10.3704 21.0621C53.3166 16.7315 96.832 16.4946 140 15C96.9018 14.1236 53.5305 14.5448 10.5374 10.7155C10.4786 10.7003 10.423 10.6851 10.3704 10.6698C9.38455 10.3834 8.42516 10.0291 7.50316 9.59223C3.6693 7.84365 0.518875 4.25509 0 -6.8208e-06C0.518875 4.25509 3.6693 7.84365 7.50316 9.59223C8.42516 10.0291 9.38455 10.3834 10.3704 10.6698C10.423 10.6851 10.4786 10.7003 10.5374 10.7155C53.5305 14.5448 96.9018 14.1236 140 15C96.832 16.4946 53.3166 16.7315 10.3704 21.0621C5.8828 22.2996 0.667663 24.9482 -1.17653e-06 30C-9.93428e-07 25.3311 -8.10325e-07 20.6622 -6.27222e-07 15.9933C-4.18148e-07 10.6622 -2.09074e-07 5.33111 0 -6.8208e-06Z" fill="black" mask="url(#path-1-inside-1_3_54)"/>
</svg>
